<?xml version="1.0" encoding="UTF-8"?>
<svg version="1.1" xmlns="http://www.w3.org/2000/svg" width="512" height="512">
<path d="M0 0 C168.96 0 337.92 0 512 0 C512 168.96 512 337.92 512 512 C343.04 512 174.08 512 0 512 C0 343.04 0 174.08 0 0 Z " fill="#000000" transform="translate(0,0)"/>
<path d="M0 0 C101.22250761 0 101.22250761 0 126.32421875 22.31640625 C149.0484835 45.10701922 155.1884939 76.95839151 155.375 108 C155.18316127 139.89718501 147.85021379 170.52088124 125 194 C118.84558824 200 118.84558824 200 116 200 C116.17233154 200.65669678 116.34466309 201.31339355 116.5222168 201.98999023 C118.70123997 210.47947602 120.52472655 219.02433734 122.30288696 227.60418701 C123.17560899 231.81409478 124.0557722 236.02243902 124.9375 240.23046875 C125.11275711 241.06688904 125.28801422 241.90330933 125.46858215 242.76507568 C127.02117659 250.149299 128.65334321 257.51395228 130.3125 264.875 C132.11793467 272.89207395 133.76997045 280.89965797 135.22265625 288.98828125 C136.16397231 294.02541972 137.34472783 299.00849608 138.5 304 C140.24498358 311.54620424 141.81109123 319.08213148 143.1953125 326.703125 C145.86619752 341.20221512 149.04184576 355.62170052 152.47607422 369.95751953 C152.67604004 370.81071777 152.87600586 371.66391602 153.08203125 372.54296875 C153.25968018 373.28571045 153.4373291 374.02845215 153.62036133 374.79370117 C154 377 154 377 154 382 C135.52 382 117.04 382 98 382 C96.12181626 372.83397708 94.24555187 363.66758108 92.375 354.5 C92.16758808 353.48354527 92.16758808 353.48354527 91.95598602 352.44655609 C88.49079403 335.45903942 85.07205483 318.46834133 81.94458008 301.41479492 C80.43048847 293.18847343 78.78328058 284.9979709 77.0625 276.8125 C74.80228632 266.04551284 72.66159166 255.25988102 70.60397339 244.45248413 C70.28664261 242.78624985 69.96807502 241.1202506 69.64822388 239.45449829 C69.20164447 237.12534177 68.76015903 234.79527994 68.3203125 232.46484375 C68.18625504 231.76827667 68.05219757 231.07170959 67.91407776 230.35403442 C67.31439335 227.14289197 67 224.28648748 67 221 C63.7 221 60.4 221 57 221 C57 274.46 57 327.92 57 383 C38.19 383 19.38 383 0 383 C0 256.61 0 130.22 0 0 Z " fill="#FCFCFC" transform="translate(81,65)"/>
<path d="M0 0 C17.49 0 34.98 0 53 0 C56.16622209 11.39839952 59.2509155 22.76689697 62.0625 34.25 C63.91686677 41.82192104 65.78797921 49.37566429 67.96484375 56.86328125 C70.37341077 65.16500067 72.43230648 73.54597827 74.5 81.9375 C76.94863699 91.85207917 79.43584795 101.74934721 82.08886719 111.61157227 C83.37673223 116.40103608 84.62680898 121.20007443 85.875 126 C86.39321782 127.98958629 86.91144733 129.97916953 87.4296875 131.96875 C87.81979004 133.46728516 87.81979004 133.46728516 88.21777344 134.99609375 C89.47684134 139.831166 90.73851775 144.66555722 92 149.5 C92.50001326 151.41666321 93.00001324 153.33332988 93.5 155.25 C93.7475 156.19875 93.995 157.1475 94.25 158.125 C96.5 166.75 96.5 166.75 97.25097656 169.62915039 C97.74745595 171.53205169 98.24419767 173.43488456 98.74121094 175.33764648 C100.04731509 180.33937321 101.34787689 185.34245951 102.640625 190.34765625 C102.91003906 191.38792969 103.17945313 192.42820312 103.45703125 193.5 C103.97174104 195.4878447 104.48485628 197.47610321 104.99609375 199.46484375 C105.95486431 203.16220204 106.92729577 206.78891539 108.171875 210.40234375 C109 213 109 213 109 217 C109.99 217 110.98 217 112 217 C112 145.39 112 73.78 112 0 C129.16 0 146.32 0 164 0 C164 126.39 164 252.78 164 383 C148.49 383 132.98 383 117 383 C113.63010791 375.13691846 113.63010791 375.13691846 112.54492188 370.91870117 C112.29319214 369.95821365 112.0414624 368.99772614 111.78210449 368.00813293 C111.51369751 366.96775375 111.24529053 365.92737457 110.96875 364.85546875 C108.09616264 353.965368 105.07923835 343.12489878 101.96875 332.30078125 C101.63736526 331.14730005 101.63736526 331.14730005 101.29928589 329.9705162 C100.16293959 326.01744826 99.02440199 322.06501689 97.88427734 318.11303711 C96.72866981 314.10731169 95.57666485 310.1005607 94.42566681 306.09350872 C90.12240421 291.11668307 85.78780351 276.15507997 81.20800781 261.25994873 C79.15432834 254.56495991 77.26213975 247.84044469 75.5 241.0625 C73.01246784 231.66586137 70.3828024 222.32300205 67.63378906 212.99975586 C65.14240507 204.53703728 62.75350535 196.04768278 60.39648438 187.54663086 C58.86242953 182.02595557 57.26839085 176.53572862 55.54199219 171.07177734 C55 169 55 169 55 166 C54.01 166 53.02 166 52 166 C52 237.61 52 309.22 52 383 C34.84 383 17.68 383 0 383 C0 256.61 0 130.22 0 0 Z " fill="#FCFCFC" transform="translate(267,65)"/>
<path d="M0 0 C10.46584391 0 19.83619974 1.74404629 28.015625 8.71875 C42.05115216 23.6086136 41.65370232 45.20204963 41.28125 64.34765625 C40.78627553 79.01746224 38.09836255 94.40610847 27 105 C17.87763364 111.54533739 11.37442291 113 0 113 C0 75.71 0 38.42 0 0 Z " fill="#010101" transform="translate(138,121)"/>
</svg>
